PathFileType	4	(X/Y/Z)	/Users/itak/Documents/Research/Walk-IL/dataset/trc/00208_00009.trc
DataRate	CameraRate	NumFrames	NumMarkers	Units	OrigDataRate	OrigDataStartFrame	OrigNumFrames
100.000000	100.000000	4	53	mm	100.000000	393	787
Frame#	Time	RPSI			LPSI			L3			STRN			T10			C7			CLAV			RBAK			LBAK			LSHO			LUPA			LAEL			LAOL			LWTS			LWPS			LFRA			LIFD			LHPS			LHTS			RSHO			RUPA			RAEL			RAOL			RWTS			RWPS			RFRA			RIFD			RHTS			RHPS			RBHD			LFHD			RFHD			LBHD			LHIP			RHIP			RASI			LASI			LKNE			LTHI			LANK			LTIP			LTOE			LMT1			LMT5			LHEE			RKNE			RTHI			RANK			RTIP			RTOE			RMT1			RMT5			RHEE			
		X1	Y1	Z1	X2	Y2	Z2	X3	Y3	Z3	X4	Y4	Z4	X5	Y5	Z5	X6	Y6	Z6	X7	Y7	Z7	X8	Y8	Z8	X9	Y9	Z9	X10	Y10	Z10	X11	Y11	Z11	X12	Y12	Z12	X13	Y13	Z13	X14	Y14	Z14	X15	Y15	Z15	X16	Y16	Z16	X17	Y17	Z17	X18	Y18	Z18	X19	Y19	Z19	X20	Y20	Z20	X21	Y21	Z21	X22	Y22	Z22	X23	Y23	Z23	X24	Y24	Z24	X25	Y25	Z25	X26	Y26	Z26	X27	Y27	Z27	X28	Y28	Z28	X29	Y29	Z29	X30	Y30	Z30	X31	Y31	Z31	X32	Y32	Z32	X33	Y33	Z33	X34	Y34	Z34	X35	Y35	Z35	X36	Y36	Z36	X37	Y37	Z37	X38	Y38	Z38	X39	Y39	Z39	X40	Y40	Z40	X41	Y41	Z41	X42	Y42	Z42	X43	Y43	Z43	X44	Y44	Z44	X45	Y45	Z45	X46	Y46	Z46	X47	Y47	Z47	X48	Y48	Z48	X49	Y49	Z49	X50	Y50	Z50	X51	Y51	Z51	X52	Y52	Z52	X53	Y53	Z53	

394	3.93	-829.098876953125	1031.69482421875	-114.0819473266602	-815.1051635742188	1037.588012695312	-233.7306671142578	-819.8588256835938	1117.295654296875	-193.3499603271484	-564.8483276367188	1290.303588867188	-170.3468475341797	-823.4295043945312	1246.389770507812	-188.8948364257812	-743.012451171875	1503.782104492188	-187.0497436523438	-583.9530639648438	1408.951171875	-171.98291015625	-834.5059814453125	1370.587280273438	-122.324821472168	-755.4949340820312	1465.990478515625	-300.0106506347656	-661.2428588867188	1462.175170898438	-346.8773803710938	-680.5531616210938	1344.829833984375	-427.3888854980469	-643.4437866210938	1137.949951171875	-454.1474304199219	-721.2731323242188	1111.942260742188	-421.1197509765625	-520.476318359375	933.2960815429688	-367.0328063964844	-522.15966796875	910.220703125	-447.7635803222656	-598.486328125	1037.4287109375	-457.8120422363281	-452.5636901855469	750.8930053710938	-362.3804931640625	-480.9990234375	831.1795654296875	-434.6267395019531	-453.9063415527344	849.2893676757812	-374.0952453613281	-702.8014526367188	1458.009765625	-13.33374309539795	-730.8963012695312	1394.290893554688	50.55068969726562	-767.1280517578125	1114.904052734375	92.92742156982422	-791.8464965820312	1108.875	1.417992830276489	-625.8089599609375	899.5956420898438	58.35038375854492	-682.8704223632812	885.13720703125	120.3590774536133	-741.5961303710938	1045.799194335938	107.8702163696289	-607.6483764648438	703.6345825195312	58.88871765136719	-587.9273681640625	778.277099609375	75.73243713378906	-642.394775390625	778.0174560546875	123.4589538574219	-706.578369140625	1653.87890625	-136.1024017333984	-494.3352661132812	1698.12939453125	-205.7052612304688	-507.6400146484375	1698.416259765625	-106.1093673706055	-645.3878784179688	1660.644409179688	-261.7583312988281	-705.13037109375	970.2744140625	-366.0094604492188	-736.5797729492188	994.194580078125	-1.736459970474243	-638.5269775390625	1033.033203125	-34.1606559753418	-607.903076171875	1010.131774902344	-314.1019897460938	-754.8347778320312	493.1744689941406	-305.6303100585938	-726.3893432617188	634.42236328125	-339.7029113769531	-946.8015747070312	48.05057144165039	-281.4620361328125	-856.3262939453125	283.7297973632812	-305.9276428222656	-740.2315673828125	43.27948760986328	-205.2078247070312	-812.2294311523438	41.01091384887695	-171.0363616943359	-820.2130737304688	37.73119735717773	-288.4983215332031	-1012.447631835938	69.52829742431641	-237.5843811035156	-566.8693237304688	524.748291015625	-27.09637260437012	-634.486572265625	784.890625	15.57630825042725	-532.6790771484375	34.19518661499023	-48.25793075561523	-529.3958129882812	410.652587890625	-45.42013168334961	-324.9474182128906	62.85288619995117	-87.71426391601562	-379.9267578125	52.92337799072266	-131.2624664306641	-423.6531372070312	40.46586990356445	-22.73991203308105	-593.3575439453125	30.90671348571777	-107.9663391113281	
395	3.94	-823.2221069335938	1032.145874023438	-112.6843795776367	-809.073974609375	1037.756225585938	-232.3782196044922	-814.1881103515625	1117.145385742188	-192.0055847167969	-559.1259155273438	1290.548095703125	-168.7747344970703	-817.801513671875	1246.307861328125	-187.1347351074219	-737.6687622070312	1503.779541015625	-184.9610900878906	-578.44580078125	1409.146484375	-170.2411193847656	-828.952392578125	1370.364990234375	-120.391716003418	-750.2228393554688	1466.136840820312	-297.8914794921875	-656.0328369140625	1462.496215820312	-345.0206298828125	-676.0699462890625	1345.170166015625	-425.5821838378906	-640.6688232421875	1138.138671875	-452.7849426269531	-718.5177001953125	1112.720336914062	-419.3280029296875	-519.3191528320312	931.9617919921875	-366.8872680664062	-521.658203125	909.2225341796875	-447.6975708007812	-596.6900634765625	1037.2109375	-456.9617004394531	-453.2938537597656	748.8242797851562	-363.2134704589844	-481.203857421875	829.6972045898438	-435.0564880371094	-453.6726989746094	847.2503662109375	-374.5697326660156	-697.2999877929688	1457.775756835938	-11.40693664550781	-725.1573486328125	1393.908935546875	52.44458389282227	-760.4708251953125	1114.3779296875	94.54282379150391	-785.144775390625	1108.290405273438	3.000898122787476	-618.6432495117188	899.4216918945312	60.19571685791016	-675.6729736328125	884.8799438476562	122.1636810302734	-734.790771484375	1045.381713867188	109.5211181640625	-599.9965209960938	703.5283813476562	60.91603088378906	-580.455810546875	778.2610473632812	77.71794128417969	-634.92919921875	777.8804931640625	125.3734817504883	-701.331298828125	1653.97705078125	-133.7052459716797	-489.2663879394531	1698.265869140625	-204.1122741699219	-502.3470458984375	1698.6728515625	-104.4493560791016	-640.6239013671875	1660.84375	-259.6043701171875	-698.8344116210938	970.0050048828125	-364.3606872558594	-730.8687744140625	994.8467407226562	-0.2907477021217346	-632.6080322265625	1033.290649414062	-32.70713424682617	-601.8350219726562	1009.928833007812	-312.591064453125	-750.73974609375	493.285400390625	-304.3982849121094	-721.6329956054688	634.4069213867188	-338.3424072265625	-946.4525146484375	49.42622375488281	-281.3876647949219	-854.0333251953125	284.6122436523438	-305.1993103027344	-740.1142578125	43.23903656005859	-205.2749786376953	-811.979248046875	41.2444953918457	-171.1217498779297	-820.1062622070312	37.82576751708984	-288.3861694335938	-1011.873840332031	71.53491973876953	-237.5100250244141	-560.970703125	525.363037109375	-26.23623657226562	-628.499267578125	785.4724731445312	17.10369300842285	-532.4815673828125	34.30088424682617	-48.2349853515625	-524.2208862304688	410.5749206542969	-44.78368377685547	-323.9861145019531	60.4402961730957	-87.50644683837891	-379.1938781738281	51.28454208374023	-131.1011199951172	-423.3014526367188	39.7899055480957	-22.48903274536133	-592.9595336914062	31.42892837524414	-108.0639877319336	
396	3.95	-817.2957153320312	1032.722290039062	-111.3328170776367	-802.9400634765625	1038.047729492188	-231.0516204833984	-808.4439697265625	1117.142822265625	-190.6992797851562	-553.3530883789062	1290.94140625	-167.1740570068359	-812.0972900390625	1246.353271484375	-185.4175567626953	-732.2887573242188	1503.901611328125	-182.8646850585938	-572.8973999023438	1409.484008789062	-168.4735870361328	-823.3462524414062	1370.27734375	-118.4521942138672	-744.8684692382812	1466.43212890625	-295.7617797851562	-650.734130859375	1463.004272460938	-343.1336975097656	-671.4799194335938	1345.714111328125	-423.7646789550781	-637.91748046875	1138.531616210938	-451.3924560546875	-715.7854614257812	1113.739868164062	-417.4858093261719	-518.2894287109375	930.7628784179688	-366.76708984375	-521.3326416015625	908.370361328125	-447.6509094238281	-594.9827880859375	1037.183837890625	-456.1015014648438	-454.3526611328125	746.855224609375	-364.1047973632812	-481.6612548828125	828.3314208984375	-435.5184326171875	-453.6739501953125	845.2874755859375	-375.0852355957031	-691.746826171875	1457.679809570312	-9.468594551086426	-719.3610229492188	1393.666137695312	54.34983825683594	-753.6757202148438	1113.981201171875	96.17022705078125	-778.3316040039062	1107.83447265625	4.603103160858154	-611.3745727539062	899.3716430664062	62.03083419799805	-668.3325805664062	884.7653198242188	123.9874954223633	-727.846923828125	1045.10693359375	111.1783294677734	-592.2990112304688	703.5330810546875	62.94654846191406	-572.8983764648438	778.3446655273438	79.68006896972656	-627.3536376953125	777.8782958984375	127.3017730712891	-696.0545043945312	1654.206298828125	-131.2479705810547	-484.2310180664062	1698.558715820312	-202.4588623046875	-497.0241088867188	1699.059448242188	-102.7652282714844	-635.8531494140625	1661.1796875	-257.3971862792969	-692.360107421875	969.856689453125	-362.6844482421875	-725.2036743164062	995.64892578125	1.153176426887512	-626.7110595703125	1033.748291015625	-31.20131301879883	-595.6407470703125	1009.84521484375	-310.9911499023438	-746.3272094726562	493.4805908203125	-303.1072082519531	-716.6212768554688	634.4938354492188	-336.8807983398438	-946.049072265625	50.99084854125977	-281.36279296875	-851.5299072265625	285.62158203125	-304.4675903320312	-739.9794311523438	43.18984222412109	-205.3574829101562	-811.7046508789062	41.51285552978516	-171.2101593017578	-819.977783203125	37.94302749633789	-288.2715148925781	-1011.219177246094	73.79576873779297	-237.4736328125	-555.11279296875	526.1087036132812	-25.24347686767578	-622.5927124023438	786.1998291015625	18.67924308776855	-532.2830810546875	34.40036392211914	-48.17047882080078	-519.15625	410.5845947265625	-43.95957565307617	-323.1803588867188	58.50217056274414	-87.41354370117188	-378.6247863769531	50.06415939331055	-131.0342407226562	-422.9624938964844	39.37491226196289	-22.29174613952637	-592.6242065429688	31.7947826385498	-108.1346893310547	
397	3.96	-811.3191528320312	1033.379638671875	-110.013557434082	-796.7089233398438	1038.44189453125	-229.7341461181641	-802.6043701171875	1117.2734375	-189.4060211181641	-547.5364990234375	1291.472290039062	-165.5448608398438	-806.316650390625	1246.5087890625	-183.7411346435547	-726.87744140625	1504.138793945312	-180.7632446289062	-567.3139038085938	1409.952270507812	-166.6815338134766	-817.6966552734375	1370.309936523438	-116.5076217651367	-739.4398803710938	1466.861328125	-293.6278991699219	-645.3526611328125	1463.685913085938	-341.2194213867188	-666.7850341796875	1346.44921875	-421.9447021484375	-635.188720703125	1139.11865234375	-449.9859924316406	-713.0765380859375	1114.991333007812	-415.6146545410156	-517.3680419921875	929.7094116210938	-366.6699829101562	-521.1661376953125	907.667724609375	-447.6177673339844	-593.357177734375	1037.342651367188	-455.2389526367188	-455.7370910644531	744.9962158203125	-365.0289001464844	-482.3660583496094	827.0885009765625	-435.9983520507812	-453.8999328613281	843.4153442382812	-375.6328125	-686.1434936523438	1457.7138671875	-7.517930507659912	-713.5147705078125	1393.555297851562	56.26663970947266	-746.773681640625	1113.711547851562	97.81095123291016	-771.4300537109375	1107.504516601562	6.224575519561768	-604.0092163085938	899.4541015625	63.86008834838867	-660.8698120117188	884.791259765625	125.8194046020508	-720.7863159179688	1044.966674804688	112.8434219360352	-584.5298461914062	703.6592407226562	64.96996307373047	-565.242431640625	778.5367431640625	81.61857604980469	-619.6715698242188	778.0137939453125	129.2357482910156	-690.7589721679688	1654.552001953125	-128.7435150146484	-479.2540283203125	1699.029907226562	-200.7540740966797	-491.6787719726562	1699.56640625	-101.06201171875	-631.0802612304688	1661.640380859375	-255.1457824707031	-685.7349243164062	969.842041015625	-360.9856872558594	-719.5626831054688	996.5361938476562	2.605672359466553	-620.8455200195312	1034.36279296875	-29.6308650970459	-589.31982421875	1009.888122558594	-309.297607421875	-741.55126953125	493.7515869140625	-301.7742919921875	-711.328369140625	634.6828002929688	-335.3271484375	-945.5669555664062	52.74174499511719	-281.4007568359375	-848.7809448242188	286.7539367675781	-303.7525939941406	-739.8235473632812	43.13267135620117	-205.4587249755859	-811.4043579101562	41.81815719604492	-171.3039855957031	-819.8240356445312	38.08021545410156	-288.1636657714844	-1010.473388671875	76.32586669921875	-237.5006561279297	-549.3836669921875	526.8987426757812	-24.12973022460938	-616.7693481445312	787.0012817382812	20.26372528076172	-532.0938110351562	34.45790100097656	-48.05735397338867	-514.2838745117188	410.6257934570312	-42.96658325195312	-322.507568359375	56.93307495117188	-87.37331390380859	-378.1875610351562	49.18904876708984	-130.9990692138672	-422.6495056152344	39.09995269775391	-22.0968017578125	-592.34619140625	32.02344131469727	-108.2005081176758	
